<?xml version="1.0" encoding="UTF-8"?>
<svg version="1.1" xmlns="http://www.w3.org/2000/svg" width="2000" height="2000">
<path d="M0 0 C660 0 1320 0 2000 0 C2000 660 2000 1320 2000 2000 C1340 2000 680 2000 0 2000 C0 1340 0 680 0 0 Z " fill="#FEFEFE" transform="translate(0,0)"/>
<path d="M0 0 C35.02405062 -0.04574438 70.04809428 -0.0810806 105.07216856 -0.10213066 C109.2184412 -0.10463171 113.36471378 -0.10722039 117.51098633 -0.10986328 C118.33634409 -0.1103879 119.16170186 -0.11091252 120.01207047 -0.11145304 C133.33051929 -0.120127 146.64895062 -0.13588018 159.96738911 -0.15430559 C173.65985935 -0.17308877 187.3523205 -0.18413441 201.04480308 -0.18817699 C209.47604155 -0.1909047 217.90723059 -0.1994813 226.33845382 -0.21583293 C232.14053132 -0.22650406 237.94258371 -0.22957805 243.74467028 -0.22700275 C247.07913605 -0.22573698 250.41344805 -0.22864434 253.74790955 -0.23841095 C274.02159151 -0.29482279 294.27488045 0.28566436 314.25 4.0625 C315.35714355 4.27092529 316.46428711 4.47935059 317.60498047 4.6940918 C358.90411751 12.9952358 398.17022415 34.1821268 424 68 C424.73734375 68.92167969 425.4746875 69.84335937 426.234375 70.79296875 C447.25167951 97.64438709 459.02631444 132.69453747 459.203125 166.73046875 C459.21013931 167.63524963 459.21715363 168.54003052 459.22438049 169.472229 C459.24179864 172.37737044 459.24823294 175.28230826 459.25 178.1875 C459.25067474 179.17831573 459.25134949 180.16913147 459.25204468 181.18997192 C459.23671736 195.3253362 458.97888688 209.1277882 456 223 C455.71866211 224.34457275 455.71866211 224.34457275 455.43164062 225.71630859 C446.91773948 265.59250093 428.07383739 300.50787068 400 330 C399.30777344 330.75667969 398.61554688 331.51335937 397.90234375 332.29296875 C376.84000681 354.57278181 347.15375935 369.41091644 317 374 C316.3409668 374.1023999 315.68193359 374.2047998 315.00292969 374.31030273 C309.98635167 375.01873661 305.06050987 375.11950748 300 375.0625 C299.22527344 375.05798828 298.45054687 375.05347656 297.65234375 375.04882812 C295.76819476 375.03719758 293.88408635 375.01926906 292 375 C299.85873767 384.15930342 308.13657533 392.941971 316.37915039 401.75415039 C321.54928284 407.28166206 326.68287031 412.83287719 331.7265625 418.4765625 C334.45837652 421.50878219 337.22717827 424.50531787 340 427.5 C345.04959454 432.95616671 350.04122488 438.46103912 355 444 C359.80527265 449.35939418 364.63064912 454.69871778 369.5 460 C375.10294652 466.09995079 380.6421281 472.25561047 386.171875 478.421875 C390.72235371 483.48872009 395.30605967 488.52362488 399.91357422 493.53857422 C403.53228476 497.48063202 407.11345702 501.45499497 410.6875 505.4375 C413.27615003 508.30600409 415.88585146 511.1547665 418.5 514 C421.85290579 517.64929525 425.18998331 521.31169568 428.5 525 C433.62319284 530.70661694 438.81119939 536.35315354 444 542 C454.36190257 553.27660846 454.36190257 553.27660846 459.4375 558.9375 C463.8976702 563.90649532 468.42683514 568.80957356 472.9609375 573.7109375 C475.81666458 576.79874907 478.66023944 579.89750771 481.5 583 C485.82868952 587.72802088 490.17312484 592.44125043 494.52392578 597.14892578 C497.81806858 600.71483801 501.09941685 604.29203075 504.375 607.875 C509.12839166 613.07113071 513.92991732 618.22134596 518.73999023 623.36499023 C522.4882583 627.37482477 526.22002857 631.39911383 529.9375 635.4375 C536.25970571 642.30037204 542.64267149 649.10554364 549.03369141 655.90429688 C551.00976588 658.01040853 552.98001399 660.12184051 554.94921875 662.234375 C562.32540309 670.13142267 569.79497734 677.90418059 577.50952148 685.47265625 C581.31824913 689.22915504 584.9155531 693.09891299 588.39453125 697.16357422 C592.15902415 701.4696137 596.24370226 705.38700197 600.59765625 709.08984375 C606.56418826 714.28592474 612.02914306 719.98413008 617.578125 725.6171875 C621.94639122 730.02565249 626.35889423 734.2845087 631.0703125 738.32421875 C635.1669417 741.88181779 639.06165916 745.66387635 643 749.39453125 C647.57354141 753.70902442 652.24146077 757.89079056 657 762 C657.58749023 762.50966309 658.17498047 763.01932617 658.78027344 763.54443359 C666.06528444 769.85492373 673.41339122 776.05317807 681 782 C682.3165042 783.04805406 683.63290082 784.09624326 684.94921875 785.14453125 C700.18722896 797.21268313 716.01382589 808.50932456 733 818 C733.80824219 818.45197754 734.61648438 818.90395508 735.44921875 819.36962891 C757.84930904 831.75668031 780.95811605 841.50902886 806 847 C806.90959473 847.20206055 807.81918945 847.40412109 808.75634766 847.61230469 C825.39876456 851.25906128 841.1814325 852.1399664 858.1875 852.0625 C860.11262904 852.05747525 862.03775936 852.05291406 863.96289062 852.04882812 C868.64195884 852.03789915 873.32096517 852.0206882 878 852 C878 854.97 878 857.94 878 861 C868.18537535 864.08465273 858.42614497 866.17816186 848.27709961 867.81030273 C845.93482907 868.18793062 843.59537841 868.58033039 841.25585938 868.97460938 C814.32027729 873.44469045 787.09184116 872.82533685 760 870 C758.56116455 869.86319824 758.56116455 869.86319824 757.09326172 869.72363281 C693.72031069 863.59596834 634.65284862 827.84974707 587.76269531 786.54052734 C584.89307848 784.03259352 581.97825812 781.5789692 579.0625 779.125 C571.26056089 772.54167824 563.63982431 765.79593927 556.1328125 758.87890625 C554.11615689 757.02146029 552.08950007 755.17765192 550.0546875 753.33984375 C540.24979622 744.46314885 530.50996339 735.35347193 521.9609375 725.2421875 C519.10337559 721.97477607 516.10393467 718.84405428 513.125 715.6875 C508.30039176 710.56099922 503.74212779 705.32366939 499.34765625 699.8203125 C495.42624696 695.1094015 491.19630607 690.68759891 487.00390625 686.21875 C484.17628991 683.20216146 481.43947977 680.11845423 478.73828125 676.98828125 C476.52743511 674.45947072 474.26403557 671.98127436 472 669.5 C468.54424587 665.71065874 465.1347711 661.88916302 461.76953125 658.01953125 C458.22421912 653.97333617 454.60477095 649.99316378 451 646 C448.75203023 643.50312008 446.50491993 641.00546849 444.2578125 638.5078125 C442.73291756 636.81407106 441.20684598 635.12138831 439.6796875 633.4296875 C436.30087292 629.68435744 432.93104035 625.93481793 429.625 622.125 C426.17080696 618.15669451 422.60869442 614.28987441 419.04516602 610.42016602 C416.512893 607.66561908 414.00979797 604.89274925 411.5625 602.0625 C408.45035876 598.47041409 405.23127914 594.98448008 402 591.5 C398.21118064 587.41429121 394.47828136 583.29606727 390.83203125 579.08203125 C388.00135739 575.86508207 385.09232984 572.7202932 382.19165039 569.56665039 C377.02371657 563.94571501 371.92588837 558.26268128 366.828125 552.578125 C362.70355484 547.9855185 358.55375029 543.41823413 354.375 538.875 C350.81746901 535.00632178 347.31710425 531.09665875 343.875 527.125 C341.45449925 524.38176582 338.97799358 521.69115432 336.5 519 C332.89987244 515.09018405 329.35582395 511.14133532 325.875 507.125 C323.45449925 504.38176582 320.97799358 501.69115432 318.5 499 C314.89987244 495.09018405 311.35582395 491.14133532 307.875 487.125 C304.98080664 483.84491419 302.00781108 480.63731943 299.04467773 477.41967773 C296.51259884 474.66526572 294.00964732 471.89257501 291.5625 469.0625 C288.45035876 465.47041409 285.23127914 461.98448008 282 458.5 C278.21368312 454.41698978 274.48232951 450.30230283 270.83984375 446.08984375 C268.43329844 443.35629441 265.96696804 440.67885994 263.5 438 C259.89984677 434.09020819 256.35582336 430.14133464 252.875 426.125 C250.45449925 423.38176582 247.97799358 420.69115432 245.5 418 C241.89987244 414.09018405 238.35582395 410.14133532 234.875 406.125 C231.98186122 402.84610939 229.01097637 399.63866809 226.046875 396.42407227 C223.48081295 393.63550656 220.96121772 390.81878132 218.5 387.9375 C207.22003813 375.02702231 190.83389212 357.65541408 173 355 C173 351.7 173 348.4 173 345 C174.03890381 344.98018066 175.07780762 344.96036133 176.14819336 344.93994141 C194.50708442 344.5796061 212.85549254 344.1539125 231.1875 343.0625 C232.49517334 342.98789551 233.80284668 342.91329102 235.15014648 342.83642578 C243.19380631 342.32669343 251.05674074 341.35228401 259 340 C259.79414307 339.87633057 260.58828613 339.75266113 261.40649414 339.62524414 C294.29003487 334.4443307 322.67432874 321.87973976 347 299 C347.61359375 298.45085937 348.2271875 297.90171875 348.859375 297.3359375 C372.14008684 275.6571095 383.03315313 238.82690709 384.27246094 207.8515625 C384.37831164 203.47399047 384.37763599 199.09941224 384.33618164 194.72094727 C384.31253928 192.06690946 384.31566273 189.41388294 384.32226562 186.75976562 C384.29704574 170.06006039 383.06052331 153.60753381 379.25 137.3125 C378.85530518 135.59389771 378.85530518 135.59389771 378.45263672 133.84057617 C374.83364794 118.54231957 369.45698386 104.81473106 362 91 C361.13375 89.37578125 361.13375 89.37578125 360.25 87.71875 C356.21844875 80.47688942 351.38674362 74.2778592 346 68 C345.53335937 67.38769531 345.06671875 66.77539062 344.5859375 66.14453125 C329.25612411 46.34744096 302.92142212 36.57979391 279 33 C270.99932692 32.05761753 263.05073873 31.83470784 255.0012207 31.79467773 C253.75115738 31.78477814 252.50109406 31.77487854 251.21315002 31.76467896 C247.82135295 31.73870419 244.42957674 31.71675613 241.03774285 31.69667697 C237.47966136 31.6746353 233.92162008 31.64733657 230.36357117 31.62062073 C223.64200903 31.57093731 216.92042428 31.52590937 210.19881839 31.48259836 C202.53967399 31.43301627 194.88056997 31.37817672 187.22146475 31.32291877 C171.48101392 31.20947313 155.74052579 31.10255435 140 31 C140.02692511 87.69031639 140.05863042 144.38062878 140.11663818 201.07092285 C140.11792445 202.33002945 140.11792445 202.33002945 140.1192367 203.61457255 C140.13790353 221.85830606 140.15745617 240.10203851 140.17792095 258.34577009 C140.18795189 267.29285045 140.19778714 276.23993103 140.20751953 285.18701172 C140.20849134 286.07734066 140.20946314 286.9676696 140.2104644 287.88497821 C140.24185607 316.72872037 140.26033285 345.57245318 140.27209247 374.41620947 C140.28424815 404.06376535 140.30947267 433.71128221 140.35107614 463.35881209 C140.35694999 467.54897656 140.36267487 471.73914123 140.36830902 475.92930603 C140.36997921 477.16629913 140.36997921 477.16629913 140.37168314 478.428282 C140.38920403 491.68826857 140.39300075 504.94822505 140.39162921 518.20822164 C140.39054361 531.5479642 140.40400236 544.88762991 140.43216428 558.22734332 C140.44844545 566.14691874 140.45371791 574.06632011 140.44297175 581.98590594 C140.43616544 587.90971766 140.45028736 593.83336258 140.47233662 599.75714105 C140.47801257 602.14636717 140.47701679 604.53562088 140.46851245 606.9248386 C140.40211129 627.33530199 141.80013798 645.9499272 156.6796875 661.44140625 C158 663 158 663 158 665 C158.57621094 665.26167969 159.15242187 665.52335937 159.74609375 665.79296875 C162.1400125 667.0749807 163.98829803 668.56396712 166.0625 670.3125 C177.18672466 679.08422469 190.20358512 682.37754483 204.125 682.6875 C205.176875 682.72166016 206.22875 682.75582031 207.3125 682.79101562 C209.87465007 682.87253858 212.43730404 682.93796479 215 683 C215.33 686.3 215.66 689.6 216 693 C144.72 693 73.44 693 0 693 C0 689.7 0 686.4 0 683 C1.24394531 682.95101562 2.48789062 682.90203125 3.76953125 682.8515625 C22.18981405 682.05865482 37.03584628 679.66136937 52 668 C52.68707031 667.50113281 53.37414062 667.00226562 54.08203125 666.48828125 C66.73204283 656.58284812 72.90637906 640.5076562 75 625 C75.14089547 621.88530346 75.13778157 618.7746525 75.13142776 615.65717602 C75.13450672 614.2513926 75.13450672 614.2513926 75.13764787 612.81720951 C75.14331908 609.66508839 75.14186045 606.51301095 75.14044189 603.36088562 C75.14302547 601.08268315 75.14603861 598.80448113 75.1494453 596.52627975 C75.15751966 590.25618213 75.15930512 583.98609596 75.16004276 577.71599376 C75.16170269 571.65091562 75.16802034 565.58584384 75.17412117 559.52076885 C75.19017735 543.27026496 75.19608443 527.01976201 75.20086992 510.76925161 C75.20320668 503.07853498 75.20680947 495.38781909 75.2105653 487.69710303 C75.22340169 461.36144536 75.23411984 435.0257881 75.2375679 408.69012737 C75.23778953 407.03702702 75.23801132 405.38392666 75.23823325 403.73082631 C75.23845389 402.07376593 75.23867437 400.41670555 75.2388947 398.75964516 C75.23933725 395.43538519 75.23978437 392.11112521 75.24023438 388.78686523 C75.24034377 387.9626426 75.24045316 387.13841997 75.24056586 386.2892209 C75.24419456 359.5781305 75.26010709 332.86706727 75.28342474 306.15598728 C75.30804243 277.90390321 75.32174168 249.65183467 75.32293582 221.39973956 C75.32310727 218.2958643 75.32332269 215.19198904 75.32357025 212.08811378 C75.32362602 211.32387361 75.32368179 210.55963344 75.32373925 209.77223447 C75.32488814 197.4928135 75.33589655 185.21342048 75.35045731 172.93400894 C75.36485175 160.58078939 75.36804272 148.22760553 75.36001733 135.8743799 C75.35596432 129.18679028 75.35701839 122.49930577 75.37107468 115.8117218 C75.38384068 109.68179946 75.38259223 103.55204097 75.37048396 97.42211876 C75.36853163 95.21204908 75.37158378 93.00196767 75.38032833 90.79191443 C75.46594686 67.6777121 73.45713769 47.76128822 57 30 C56.35804688 29.30390625 55.71609375 28.6078125 55.0546875 27.890625 C50.54084599 23.46259797 45.5910607 20.47379092 40 17.625 C39.34773437 17.29097168 38.69546875 16.95694336 38.0234375 16.61279297 C29.23987759 12.3631772 20.59227641 11.6673844 10.9375 11.375 C9.88111328 11.33632813 8.82472656 11.29765625 7.73632812 11.2578125 C5.15780941 11.16447246 2.5789298 11.08119249 0 11 C0 7.37 0 3.74 0 0 Z " fill="#010101" transform="translate(659,599)"/>
<path d="M0 0 C26.55680737 -0.5860937 52.41062187 -0.15236825 78 8 C78.70382812 8.21914063 79.40765625 8.43828125 80.1328125 8.6640625 C118.64611628 20.70774169 153.76784054 43.65622609 176 78 C176.43393066 78.66999023 176.86786133 79.33998047 177.31494141 80.03027344 C191.34843795 102.05714241 198.87445235 126.17461041 202 152 C202.17200928 153.23572754 202.34401855 154.47145508 202.52124023 155.74462891 C203.05322229 160.01660318 203.17767024 164.2375873 203.203125 168.5390625 C203.21009399 169.33418747 203.21706299 170.12931244 203.22424316 170.9485321 C203.24157025 173.50740903 203.24796537 176.06606681 203.25 178.625 C203.25100708 179.49893402 203.25201416 180.37286804 203.25305176 181.27328491 C203.2425538 194.73491054 202.62827464 207.76325719 200 221 C199.7831958 222.16184814 199.7831958 222.16184814 199.56201172 223.34716797 C190.22178254 272.84107342 161.00259617 320.69530674 119.56860352 349.71533203 C108.5222955 357.2073967 96.56834953 362.57251323 84 367 C82.9584375 367.36996094 81.916875 367.73992187 80.84375 368.12109375 C70.1567594 371.80486702 60.22645683 373.39280822 48.9375 374.125 C47.69033203 374.21136719 46.44316406 374.29773438 45.15820312 374.38671875 C42.10582901 374.59722731 39.05317439 374.80149739 36 375 C36.42410156 375.4125 36.84820313 375.825 37.28515625 376.25 C41.10599725 380.01205883 44.70183901 383.89335087 48.20507812 387.95117188 C51.2910156 391.47364022 54.52656028 394.85378485 57.75 398.25 C66.52329822 407.53359739 75.15590632 416.93086704 83.6875 426.4375 C86.27615003 429.30600409 88.88585146 432.1547665 91.5 435 C95.58917448 439.45064847 99.64369084 443.93078083 103.6796875 448.4296875 C106.31079783 451.34428447 108.96652475 454.23539224 111.625 457.125 C114.6022264 460.36213091 117.55952966 463.61137856 120.4375 466.9375 C124.01937309 471.069109 127.73837958 475.06929927 131.45458984 479.07958984 C135.24887039 483.17693929 138.99546447 487.31410773 142.72265625 491.47265625 C145.29809775 494.33082203 147.89685764 497.16710261 150.5 500 C154.59169207 504.45332617 158.64822977 508.93659888 162.6875 513.4375 C165.27615003 516.30600409 167.88585146 519.1547665 170.5 522 C173.85290579 525.64929525 177.18998331 529.31169568 180.5 533 C185.15994856 538.19061886 189.87358275 543.33112843 194.59277344 548.46777344 C196.89708552 550.97677112 199.19841091 553.48850468 201.5 556 C202.41665192 557.00001352 203.3333186 558.00001351 204.25 559 C220.75 577 220.75 577 222.12475586 578.49975586 C223.04220685 579.50059668 223.95968736 580.50141045 224.87719727 581.50219727 C227.15710551 583.98911261 229.43651293 586.47648315 231.71484375 588.96484375 C237.95448377 595.77834684 244.21407649 602.57314225 250.48388672 609.35888672 C252.49038856 611.53081995 254.49598437 613.70358854 256.50146484 615.87646484 C257.50298419 616.96152572 258.50461234 618.04648617 259.50634766 619.13134766 C261.97099431 621.80064872 264.43429822 624.47116128 266.89453125 627.14453125 C274.22040448 635.10101091 281.60430463 643.00174111 289.01171875 650.88232422 C291.05226929 653.05567091 293.08888988 655.23264959 295.125 657.41015625 C301.79359846 664.53187642 308.48298868 671.60174424 315.47265625 678.41015625 C317.41897716 680.40460875 319.2246639 682.40865775 321.03125 684.5234375 C325.69032947 689.89513391 330.73512382 694.88476489 335.76977539 699.90014648 C337.43426277 701.5592732 339.09333447 703.22368051 340.75195312 704.88867188 C345.76970762 709.90923959 350.82178346 714.82901188 356.22290039 719.44116211 C359.30075577 722.14099815 362.13716191 725.07604378 365 728 C369.13190746 732.17489715 373.2698021 736.2444786 377.7578125 740.0390625 C381.02522641 742.89662658 384.15589999 745.89611009 387.3125 748.875 C392.53574952 753.78929218 397.84889213 758.44512093 403.453125 762.921875 C406.0700833 765.05718453 408.56842779 767.28530363 411.0625 769.5625 C415.87926142 773.93590896 420.87775526 777.99157671 426 782 C427.33363513 783.06342371 428.66694141 784.1272599 430 785.19140625 C438.58565262 792.00110951 447.30742544 798.40588292 456.51367188 804.35644531 C458.3562525 805.54991629 460.18035329 806.77184602 462 808 C462 808.33 462 808.66 462 809 C412.11881194 818.57833442 361.97462598 797.552861 321.28515625 770.08447266 C314.31805279 765.30190182 307.59045229 760.28909359 301 755 C300.15824219 754.33871094 299.31648438 753.67742188 298.44921875 752.99609375 C291.48932671 747.50144214 284.73183116 741.76983007 278 736 C277.14792969 735.27425781 276.29585937 734.54851563 275.41796875 733.80078125 C271.32030748 730.2476133 267.63412761 726.59457884 264.13671875 722.453125 C261.22485783 719.11007443 258.16875539 715.91020541 255.125 712.6875 C250.30018049 707.56120811 245.74211176 702.32364931 241.34765625 696.8203125 C237.42624696 692.1094015 233.19630607 687.68759891 229.00390625 683.21875 C226.17628991 680.20216146 223.43947977 677.11845423 220.73828125 673.98828125 C218.52743511 671.45947072 216.26403557 668.98127436 214 666.5 C210.54424587 662.71065874 207.1347711 658.88916302 203.76953125 655.01953125 C200.22421912 650.97333617 196.60477095 646.99316378 193 643 C191.49971321 641.33359149 189.99971128 639.66692647 188.5 638 C187.7575 637.175 187.015 636.35 186.25 635.5 C169 616.33333333 151.75 597.16666667 134.5 578 C133.75492188 577.17242188 133.00984375 576.34484375 132.2421875 575.4921875 C130.76707382 573.85260121 129.29308348 572.21200345 127.8203125 570.5703125 C123.69902273 565.97969436 119.55129287 561.41550032 115.375 556.875 C112.39781719 553.63782784 109.44047144 550.38862271 106.5625 547.0625 C103.45035876 543.47041409 100.23127914 539.98448008 97 536.5 C93.21368312 532.41698978 89.48232951 528.30230283 85.83984375 524.08984375 C83.43329844 521.35629441 80.96696804 518.67885994 78.5 516 C74.89984677 512.09020819 71.35582336 508.14133464 67.875 504.125 C64.98080664 500.84491419 62.00781108 497.63731943 59.04467773 494.41967773 C56.51259884 491.66526572 54.00964732 488.89257501 51.5625 486.0625 C48.45035876 482.47041409 45.23127914 478.98448008 42 475.5 C38.21368312 471.41698978 34.48232951 467.30230283 30.83984375 463.08984375 C28.43329844 460.35629441 25.96696804 457.67885994 23.5 455 C19.89984677 451.09020819 16.35582336 447.14133464 12.875 443.125 C10.45449925 440.38176582 7.97799358 437.69115432 5.5 435 C1.89987244 431.09018405 -1.64417605 427.14133532 -5.125 423.125 C-7.54550275 420.38176355 -10.02211255 417.69125414 -12.5 415 C-16.21679988 410.96054811 -19.91099687 406.90684905 -23.4921875 402.74609375 C-24.50125014 401.57756784 -25.52764142 400.42379457 -26.5703125 399.28515625 C-28 397.6875 -28 397.6875 -30 395 C-28.70905536 391.12716608 -27.49029617 390.94170443 -23.9375 389.0625 C-11.84313127 382.24410142 -1.12393761 373.45359199 9 364 C11.49021223 361.80740769 13.98215837 359.61695529 16.48046875 357.43359375 C21.17970157 352.89464484 25.33658034 347.96131997 29.21875 342.7109375 C35.75963258 333.9629904 40.51743682 328.73353678 51.078125 325.359375 C75.79742847 317.43620089 98.41945287 294.55759828 110.23657227 272.12963867 C117.03649092 258.6788721 121.90277452 244.73685434 125 230 C125.15098145 229.33806641 125.30196289 228.67613281 125.45751953 227.99414062 C135.90669613 180.87703364 127.21186773 122.97634118 101.43481445 82.15966797 C96.35507894 74.38247258 90.56024595 67.56024595 84 61 C83.18789062 60.18789063 82.37578125 59.37578125 81.5390625 58.5390625 C72.03308141 49.52530049 58.72863457 40.3397861 45.72973633 37.50488281 C37.70991599 35.67455222 33.54428576 31.29601257 28.0625 25.375 C26.31349129 23.55513144 24.56092395 21.73867577 22.8046875 19.92578125 C21.97549805 19.06549316 21.14630859 18.20520508 20.29199219 17.31884766 C14.95249799 11.91679015 8.99729394 7.38802574 2.8125 3 C1.884375 2.34 0.95625 1.68 0 1 C0 0.67 0 0.34 0 0 Z " fill="#010101" transform="translate(1072,600)"/>
<path d="M0 0 C46.33333333 0 46.33333333 0 65 8 C65 75.98 65 143.96 65 214 C58.64919707 217.17540147 52.90348875 219.97813699 46.25 222.125 C45.4770459 222.37797852 44.7040918 222.63095703 43.90771484 222.89160156 C37.02933761 225.08939268 30.10438899 226.70595568 23 228 C21.96230469 228.20496094 20.92460938 228.40992188 19.85546875 228.62109375 C12.92142402 229.9117696 7.35762476 230 0 230 C0 154.1 0 78.2 0 0 Z " fill="#030303" transform="translate(891,671)"/>
<path d="M0 0 C0.66 0 1.32 0 2 0 C3.45402342 1.6376272 4.83848678 3.33734196 6.1875 5.0625 C9.39193659 9.07189107 12.65300118 12.7785331 16.3359375 16.34375 C18.68874688 18.68551333 20.8247667 21.19457261 22.9921875 23.70703125 C25.41072612 26.46905882 27.88891376 29.17397712 30.375 31.875 C35.28815766 37.2161535 40.15379455 42.59795736 45 48 C46.49971128 49.66692647 47.99971321 51.33359149 49.5 53 C50.23347656 53.81597656 50.96695313 54.63195313 51.72265625 55.47265625 C53.30982546 57.23406016 54.90130953 58.99158153 56.49609375 60.74609375 C57.30175781 61.63425781 58.10742188 62.52242187 58.9375 63.4375 C59.66839844 64.24058594 60.39929688 65.04367187 61.15234375 65.87109375 C65.22769319 70.56679236 65.2734553 74.01796572 65.22363281 79.9909668 C65.22404068 80.91180054 65.22444855 81.83263428 65.22486877 82.78137207 C65.22506653 84.7849686 65.22101824 86.78856896 65.21326447 88.7921505 C65.20303647 91.97678453 65.20842702 95.16102714 65.21868896 98.34565735 C65.24663933 107.4021371 65.25937095 116.45840302 65.22998047 125.51489258 C65.21312565 131.05589087 65.22577125 136.59619512 65.25643158 142.13712502 C65.26248811 144.23675058 65.25779514 146.33643887 65.24155426 148.43601036 C65.10581421 166.7707794 67.9459569 180.48146631 80 195 C80.49242187 195.65355469 80.98484375 196.30710937 81.4921875 196.98046875 C90.0621518 207.94711799 104.42478069 214.99456988 118 217 C125.32071583 217.59540756 132.65942169 217.81060785 140 218 C140.33 221.3 140.66 224.6 141 228 C103.05 228 65.1 228 26 228 C21 191.33333333 21 191.33333333 21 177 C13.08 177 5.16 177 -3 177 C-2 171 -2 171 -1.44738865 168.06159782 C-0.9526611 164.67604748 -0.86000953 161.43607414 -0.84178162 158.01443481 C-0.83684364 157.33552213 -0.83190566 156.65660944 -0.82681805 155.95712364 C-0.81153167 153.69553917 -0.80310664 151.4339829 -0.79467773 149.17236328 C-0.78509223 147.54588069 -0.77508176 145.91940055 -0.76467896 144.29292297 C-0.73769666 139.88640977 -0.71665104 135.47988592 -0.69667697 131.07333612 C-0.67477614 126.4648766 -0.64740753 121.85644961 -0.62062073 117.24801636 C-0.57074917 108.52528125 -0.52578984 99.80252803 -0.48259836 91.07975757 C-0.43317862 81.14750055 -0.37827808 71.21527619 -0.32291877 61.28305078 C-0.20918374 40.85539762 -0.1023263 20.42771328 0 0 Z " fill="#020202" transform="translate(891,1064)"/>
<path d="M0 0 C2.88860837 1.15544335 5.77602724 2.31388935 8.66015625 3.48046875 C22.76013636 9.01805779 37.22736698 12.72042182 52 16 C52.86109375 16.1964209 53.7221875 16.3928418 54.609375 16.59521484 C69.80730499 19.926137 85.45226379 19.34834038 100.92578125 19.203125 C101.99033035 19.19651604 101.99033035 19.19651604 103.0763855 19.18977356 C107.48131883 19.12822686 111.66365414 18.70546469 116 18 C116 21.3 116 24.6 116 28 C83.42611362 36.80774269 52.20727566 39.70556395 18.625 38.5625 C17.46532715 38.52342529 16.3056543 38.48435059 15.11083984 38.4440918 C14.01465332 38.40195557 12.9184668 38.35981934 11.7890625 38.31640625 C10.81662598 38.27974854 9.84418945 38.24309082 8.84228516 38.20532227 C5.8753305 37.99099407 2.93421215 37.48903536 0 37 C0 24.79 0 12.58 0 0 Z " fill="#040404" transform="translate(1578,1432)"/>
<path d="M0 0 C2.375 0.25 2.375 0.25 5 1 C7.31491757 4.31596301 7.2109214 7.29761565 7.125 11.25 C7.10695313 12.32765625 7.08890625 13.4053125 7.0703125 14.515625 C7.04710937 15.33546875 7.02390625 16.1553125 7 17 C9.64738916 18.4606285 10.89448334 19 14 19 C14.495 20.98 14.495 20.98 15 23 C16.65 23 18.3 23 20 23 C20.185625 23.721875 20.37125 24.44375 20.5625 25.1875 C22.31851671 28.62318487 24.25481716 29.71703838 27.5390625 31.59375 C29 33 29 33 29.2109375 35.65625 C29.14132812 36.4296875 29.07171875 37.203125 29 38 C20.93519961 35.86662595 12.96053614 33.49320448 5 31 C4.79597171 34.39494112 4.67215146 37.78830486 4.5625 41.1875 C4.50384766 42.14720703 4.44519531 43.10691406 4.38476562 44.09570312 C4.10700212 49.35416038 4.10700212 49.35416038 6.58935547 53.72119141 C8.73306577 55.23453606 8.73306577 55.23453606 12 57 C12 57.66 12 58.32 12 59 C4.34221599 58.10659187 4.34221599 58.10659187 2.09375 57.40625 C-0.72169689 56.85996926 -2.94976501 57.37078578 -5.75 57.9375 C-7.22726562 58.22947266 -7.22726562 58.22947266 -8.734375 58.52734375 C-9.48203125 58.68332031 -10.2296875 58.83929687 -11 59 C-9.31934199 55.23408112 -7.72407321 53.8620366 -4 52 C-3.34 52 -2.68 52 -2 52 C-2 44.74 -2 37.48 -2 30 C-8.7772797 31.9702296 -8.7772797 31.9702296 -15.55200195 33.94921875 C-16.39722412 34.19285156 -17.24244629 34.43648437 -18.11328125 34.6875 C-18.97735596 34.93886719 -19.84143066 35.19023438 -20.73168945 35.44921875 C-23 36 -23 36 -26 36 C-26.5 33.8125 -26.5 33.8125 -26 31 C-24.03652079 29.53288131 -22.03034793 28.42111208 -19.84765625 27.30859375 C-17.81456686 26.13645583 -17.81456686 26.13645583 -17.24609375 23.84765625 C-17.16488281 23.23792969 -17.08367188 22.62820313 -17 22 C-15.35 22 -13.7 22 -12 22 C-11.34 20.68 -10.68 19.36 -10 18 C-8.7934375 18.0309375 -8.7934375 18.0309375 -7.5625 18.0625 C-5.06645115 18.29633621 -5.06645115 18.29633621 -4 17 C-3.84118395 15.27361076 -3.72310773 13.5434007 -3.625 11.8125 C-3.25144481 7.10937896 -2.477965 3.98629152 0 0 Z " fill="#E8EBEC" transform="translate(762,618)"/>
<path d="M0 0 C1.32 0 2.64 0 4 0 C5.10228696 4.40914783 5.07654536 8.48382401 5 13 C3.68 13 2.36 13 1 13 C0.67 8.71 0.34 4.42 0 0 Z " fill="#CACDCE" transform="translate(782,1188)"/>
<path d="M0 0 C1.32 0 2.64 0 4 0 C4.0272415 1.41655793 4.04650467 2.83327045 4.0625 4.25 C4.07410156 5.03890625 4.08570313 5.8278125 4.09765625 6.640625 C4.00385306 8.90691002 3.63241063 10.8288895 3 13 C1.68 13 0.36 13 -1 13 C-0.67 8.71 -0.34 4.42 0 0 Z " fill="#CACDCD" transform="translate(783,792)"/>
<path d="M0 0 C1.32 0 2.64 0 4 0 C4.33 4.29 4.66 8.58 5 13 C3.68 13 2.36 13 1 13 C0.67 8.71 0.34 4.42 0 0 Z " fill="#CBCDCE" transform="translate(760,896)"/>
<path d="M0 0 C0.99 0 1.98 0 3 0 C3.50512244 1.60256108 4.00391627 3.20711792 4.5 4.8125 C4.7784375 5.70582031 5.056875 6.59914063 5.34375 7.51953125 C6 10 6 10 6 13 C4.68 13 3.36 13 2 13 C1.47212358 11.02270019 0.95287097 9.04309608 0.4375 7.0625 C0.00244141 5.40927734 0.00244141 5.40927734 -0.44140625 3.72265625 C-0.62574219 2.82417969 -0.81007813 1.92570312 -1 1 C-0.67 0.67 -0.34 0.34 0 0 Z " fill="#D1D3D4" transform="translate(778,1167)"/>
<path d="M0 0 C1.32 0 2.64 0 4 0 C4.50512244 1.60256108 5.00391627 3.20711792 5.5 4.8125 C5.7784375 5.70582031 6.056875 6.59914063 6.34375 7.51953125 C7 10 7 10 7 13 C5.68 13 4.36 13 3 13 C2.49242138 11.58603098 1.99425075 10.16868271 1.5 8.75 C1.08234375 7.56664062 1.08234375 7.56664062 0.65625 6.359375 C0 4 0 4 0 0 Z " fill="#CACDCE" transform="translate(764,1126)"/>
<path d="M0 0 C0.99 0 1.98 0 3 0 C2.67 4.29 2.34 8.58 2 13 C0.68 13 -0.64 13 -2 13 C-2.16682272 8.07872966 -2.24828052 4.49656104 0 0 Z " fill="#CBCDCE" transform="translate(762,1084)"/>
<path d="M0 0 C1.32 0 2.64 0 4 0 C3.67 3.96 3.34 7.92 3 12 C1.68 12.33 0.36 12.66 -1 13 C-0.67 8.71 -0.34 4.42 0 0 Z " fill="#CED0D1" transform="translate(783,1001)"/>
<path d="M0 0 C0.50757862 1.41396902 1.00574925 2.83131729 1.5 4.25 C1.7784375 5.03890625 2.056875 5.8278125 2.34375 6.640625 C3 9 3 9 3 13 C1.68 12.67 0.36 12.34 -1 12 C-1.99 8.37 -2.98 4.74 -4 1 C-2 0 -2 0 0 0 Z " fill="#D2D4D5" transform="translate(780,958)"/>
<path d="M0 0 C1.32 0 2.64 0 4 0 C3.69128878 1.79232337 3.37790936 3.58384321 3.0625 5.375 C2.88847656 6.37273438 2.71445312 7.37046875 2.53515625 8.3984375 C2 11 2 11 1 13 C-0.32 13 -1.64 13 -3 13 C-2.01 8.71 -1.02 4.42 0 0 Z " fill="#D1D4D5" transform="translate(780,813)"/>
<path d="M0 0 C1.32 0 2.64 0 4 0 C3.68991116 1.60463449 3.37683713 3.20869231 3.0625 4.8125 C2.88847656 5.70582031 2.71445312 6.59914063 2.53515625 7.51953125 C2 10 2 10 1 13 C0.01 12.67 -0.98 12.34 -2 12 C-1 3.42857143 -1 3.42857143 0 0 Z " fill="#D6D8D9" transform="translate(779,1022)"/>
<path d="M0 0 C1.32 0 2.64 0 4 0 C4.50559908 1.43554025 5.0042749 2.8735202 5.5 4.3125 C5.7784375 5.11300781 6.056875 5.91351562 6.34375 6.73828125 C7 9 7 9 7 12 C5.68 12 4.36 12 3 12 C2.01 8.04 1.02 4.08 0 0 Z " fill="#D4D6D7" transform="translate(763,918)"/>
<path d="M0 0 C1.32 0 2.64 0 4 0 C4 3.96 4 7.92 4 12 C2.68 11.67 1.36 11.34 0 11 C0 7.37 0 3.74 0 0 Z " fill="#CCCFCF" transform="translate(760,688)"/>
<path d="M0 0 C1.32 0 2.64 0 4 0 C3.34 3.63 2.68 7.26 2 11 C0.68 11.33 -0.64 11.66 -2 12 C-1 3.42857143 -1 3.42857143 0 0 Z " fill="#D6D9DA" transform="translate(766,1063)"/>
<path d="M0 0 C1.32 0.33 2.64 0.66 4 1 C2.68 4.96 1.36 8.92 0 13 C-0.99 13 -1.98 13 -3 13 C-2.45144652 8.428721 -1.58255197 4.32564205 0 0 Z " fill="#D6D9DA" transform="translate(773,1042)"/>
<path d="M0 0 C0.99 0 1.98 0 3 0 C4.32 3.96 5.64 7.92 7 12 C5.68 12.33 4.36 12.66 3 13 C2.49242138 11.58603098 1.99425075 10.16868271 1.5 8.75 C1.08234375 7.56664062 1.08234375 7.56664062 0.65625 6.359375 C0 4 0 4 0 0 Z " fill="#D8DBDC" transform="translate(770,938)"/>
<path d="M0 0 C0.99 0 1.98 0 3 0 C3 3.96 3 7.92 3 12 C1.68 12.33 0.36 12.66 -1 13 C-0.67 8.71 -0.34 4.42 0 0 Z " fill="#F3F6F6" transform="translate(761,1292)"/>
<path d="M0 0 C1.32 0.33 2.64 0.66 4 1 C2.68 4.96 1.36 8.92 0 13 C-0.99 12.67 -1.98 12.34 -3 12 C-2.68950274 10.56206608 -2.3765224 9.1246682 -2.0625 7.6875 C-1.88847656 6.88699219 -1.71445312 6.08648438 -1.53515625 5.26171875 C-1 3 -1 3 0 0 Z " fill="#DADDDE" transform="translate(772,1251)"/>
<path d="M0 0 C1.32 0 2.64 0 4 0 C3.54803755 1.60597325 3.08817673 3.20972508 2.625 4.8125 C2.36976563 5.70582031 2.11453125 6.59914063 1.8515625 7.51953125 C1 10 1 10 -1 13 C-1.66 12.67 -2.32 12.34 -3 12 C-2.49202991 7.6822542 -1.80317221 3.96697886 0 0 Z " fill="#D9DCDD" transform="translate(774,834)"/>
<path d="M0 0 C0.99 0 1.98 0 3 0 C6.42857143 8.42857143 6.42857143 8.42857143 6 13 C5.01 13 4.02 13 3 13 C2.49242138 11.58603098 1.99425075 10.16868271 1.5 8.75 C1.08234375 7.56664062 1.08234375 7.56664062 0.65625 6.359375 C0 4 0 4 0 0 Z " fill="#D9DBDC" transform="translate(769,729)"/>
<path d="M0 0 C0.99 0 1.98 0 3 0 C2.69106068 1.6256807 2.3777305 3.25052748 2.0625 4.875 C1.88847656 5.77992187 1.71445312 6.68484375 1.53515625 7.6171875 C1 10 1 10 0 12 C-0.99 12 -1.98 12 -3 12 C-2.14285714 3.42857143 -2.14285714 3.42857143 0 0 Z " fill="#DCDEDF" transform="translate(779,1231)"/>
<path d="M0 0 C1.32 0 2.64 0 4 0 C3.40075776 4.19469571 2.42500059 8.00999834 1 12 C0.01 12 -0.98 12 -2 12 C-1.34 8.04 -0.68 4.08 0 0 Z " fill="#DDE0E1" transform="translate(765,1272)"/>
<path d="M0 0 C0.99 0 1.98 0 3 0 C3.33 4.29 3.66 8.58 4 13 C3.01 13 2.02 13 1 13 C-0.00496852 9.98509443 -0.10335303 7.95818308 -0.0625 4.8125 C-0.05347656 3.91144531 -0.04445313 3.01039062 -0.03515625 2.08203125 C-0.02355469 1.39496094 -0.01195312 0.70789062 0 0 Z " fill="#E1E4E5" transform="translate(761,1105)"/>
<path d="M0 0 C0.99 0 1.98 0 3 0 C2.67 4.29 2.34 8.58 2 13 C1.01 13 0.02 13 -1 13 C-1.02696365 11.20841511 -1.04637917 9.41671527 -1.0625 7.625 C-1.07410156 6.62726562 -1.08570313 5.62953125 -1.09765625 4.6015625 C-1 2 -1 2 0 0 Z " fill="#E0E3E4" transform="translate(762,875)"/>
<path d="M0 0 C0.99 0.33 1.98 0.66 3 1 C2.01 4.96 1.02 8.92 0 13 C-0.99 12.67 -1.98 12.34 -3 12 C-2.14285714 3.42857143 -2.14285714 3.42857143 0 0 Z " fill="#DCDFE0" transform="translate(768,854)"/>
<path d="M0 0 C1.875 0.125 1.875 0.125 4 1 C5.69726294 4.73397847 6.23990744 7.92157346 6 12 C5.01 12 4.02 12 3 12 C2.49440092 10.56445975 1.9957251 9.1264798 1.5 7.6875 C1.2215625 6.88699219 0.943125 6.08648438 0.65625 5.26171875 C0 3 0 3 0 0 Z " fill="#E0E3E4" transform="translate(771,1147)"/>
<path d="M0 0 C0.99 0 1.98 0 3 0 C4.00496852 3.01490557 4.10335303 5.04181692 4.0625 8.1875 C4.05347656 9.08855469 4.04445313 9.98960937 4.03515625 10.91796875 C4.02355469 11.60503906 4.01195312 12.29210937 4 13 C3.01 13 2.02 13 1 13 C0.67 8.71 0.34 4.42 0 0 Z " fill="#E3E5E6" transform="translate(782,979)"/>
<path d="M0 0 C1.32 0.33 2.64 0.66 4 1 C5.28317892 4.84953676 5.06643637 7.94738135 5 12 C4.01 12 3.02 12 2 12 C1.34 8.04 0.68 4.08 0 0 Z " fill="#DEE1E2" transform="translate(781,771)"/>
<path d="M0 0 C0.99 0 1.98 0 3 0 C3.50559908 1.43554025 4.0042749 2.8735202 4.5 4.3125 C4.7784375 5.11300781 5.056875 5.91351562 5.34375 6.73828125 C6 9 6 9 6 12 C4.68 11.67 3.36 11.34 2 11 C0.80712589 7.12315913 0 4.08378077 0 0 Z " fill="#E0E3E3" transform="translate(776,750)"/>
<path d="M0 0 C0.99 0 1.98 0 3 0 C3.50559908 1.43554025 4.0042749 2.8735202 4.5 4.3125 C4.7784375 5.11300781 5.056875 5.91351562 5.34375 6.73828125 C6 9 6 9 6 12 C4.68 11.67 3.36 11.34 2 11 C0.80712589 7.12315913 0 4.08378077 0 0 Z " fill="#E2E5E6" transform="translate(763,709)"/>
<path d="M0 0 C0.99 0 1.98 0 3 0 C3.08159574 4.16138263 2.98248524 7.9472484 2 12 C0.68 12 -0.64 12 -2 12 C-1.34 8.04 -0.68 4.08 0 0 Z " fill="#E4E7E8" transform="translate(783,1210)"/>
</svg>
