<!DOCTYPE svg PUBLIC "-//W3C//DTD SVG 1.1//EN" "http://www.w3.org/Graphics/SVG/1.1/DTD/svg11.dtd">
<!-- Uploaded to: SVG Repo, www.svgrepo.com, Transformed by: SVG Repo Mixer Tools -->
<svg fill="#ffffff" height="800px" width="800px" version="1.1" id="Layer_1" xmlns="http://www.w3.org/2000/svg" xmlns:xlink="http://www.w3.org/1999/xlink" viewBox="-50.36 -50.36 604.32 604.32" xml:space="preserve" stroke="#ffffff" stroke-width="0.00503597" transform="matrix(1, 0, 0, 1, 0, 0)rotate(0)">
<g id="SVGRepo_bgCarrier" stroke-width="0"/>
<g id="SVGRepo_tracerCarrier" stroke-linecap="round" stroke-linejoin="round" stroke="#030303" stroke-width="15.107909999999999"> <g> <g> <g> <path d="M411.269,125.899c-57.797,0-92.328,50.671-92.328,99.664c0,30.51,7.798,47.322,20.707,75.172 c25.541,55.103,64.185,115.024,64.571,115.62c1.553,2.401,4.205,3.836,7.05,3.836s5.498-1.435,7.05-3.836 c0.386-0.596,39.029-60.517,64.571-115.62c12.909-27.849,20.707-44.661,20.707-75.172 C503.597,176.57,469.067,125.899,411.269,125.899z M411.269,268.587c-27.774,0-50.361-22.587-50.361-50.361 c0-27.774,22.587-50.361,50.361-50.361c27.774,0,50.361,22.587,50.361,50.361C461.63,246,439.043,268.587,411.269,268.587z"/> <path d="M411.269,184.653c-18.516,0-33.574,15.058-33.574,33.574s15.058,33.574,33.574,33.574s33.574-15.058,33.574-33.574 S429.785,184.653,411.269,184.653z"/> <path d="M411.269,436.456h-8.393c-4.642,0-8.393,3.752-8.393,8.393c0,4.642,3.752,8.393,8.393,8.393h8.393 c4.642,0,8.393-3.752,8.393-8.393C419.663,440.208,415.911,436.456,411.269,436.456z"/> <path d="M323.393,436.456h-15.897c-4.633,0-8.393,3.752-8.393,8.393c0,4.642,3.76,8.393,8.393,8.393h15.897 c4.642,0,8.393-3.752,8.393-8.393C331.786,440.208,328.034,436.456,323.393,436.456z"/> <path d="M371.081,436.456h-15.897c-4.633,0-8.393,3.752-8.393,8.393c0,4.642,3.76,8.393,8.393,8.393h15.897 c4.642,0,8.393-3.752,8.393-8.393C379.474,440.208,375.722,436.456,371.081,436.456z"/> <path d="M115.655,360.915c0-4.642-3.752-8.393-8.393-8.393H91.364c-4.633,0-8.393,3.752-8.393,8.393s3.76,8.393,8.393,8.393 h15.897C111.903,369.309,115.655,365.557,115.655,360.915z"/> <path d="M84.958,436.456H69.061c-4.633,0-8.393,3.752-8.393,8.393c0,4.642,3.76,8.393,8.393,8.393h15.897 c4.642,0,8.393-3.752,8.393-8.393C93.352,440.208,89.6,436.456,84.958,436.456z"/> <path d="M42.302,432.17c-3.718-2.09-6.967-4.826-9.652-8.15c-2.912-3.592-8.192-4.155-11.81-1.242 c-3.601,2.913-4.163,8.192-1.242,11.801c4.02,4.986,8.897,9.099,14.487,12.229c1.309,0.73,2.711,1.074,4.104,1.074 c2.929,0,5.783-1.544,7.328-4.289C47.783,439.556,46.339,434.444,42.302,432.17z"/> <path d="M67.556,360.923c0-4.633-4.163-8.393-8.796-8.402h-0.084c-6.06,0-11.986,1.074-17.626,3.19 c-4.348,1.628-6.539,6.471-4.91,10.811c1.267,3.366,4.465,5.439,7.856,5.439c0.99,0,1.989-0.168,2.955-0.529 c3.76-1.418,8.066-1.905,11.776-2.124h0.848C64.207,369.309,67.548,365.557,67.556,360.923z"/> <path d="M189.073,268.587c-4.642,0-8.393,3.752-8.393,8.393c0,4.642,3.752,8.393,8.393,8.393h12.414 c0.906,0,1.855,0.034,2.77,0.109c0.235,0.025,0.47,0.034,0.713,0.034c4.314,0,7.982-3.315,8.352-7.688 c0.394-4.616-3.038-8.687-7.655-9.065c-1.41-0.126-2.837-0.143-4.23-0.176H189.073z"/> <path d="M141.384,268.587c-4.642,0-8.393,3.752-8.393,8.393c0,4.642,3.752,8.393,8.393,8.393h15.906 c4.633,0,8.393-3.752,8.393-8.393c0-4.642-3.76-8.393-8.393-8.393H141.384z"/> <path d="M25.269,400.309c0.319-4.264,1.435-8.36,3.307-12.179c2.04-4.163,0.327-9.191-3.836-11.23 c-4.172-2.073-9.199-0.327-11.23,3.836c-2.82,5.75-4.499,11.91-4.977,18.315c-0.353,4.616,3.114,8.654,7.739,8.998 c0.21,0.017,0.428,0.025,0.638,0.025C21.257,408.073,24.942,404.715,25.269,400.309z"/> <path d="M180.335,436.456h-15.897c-4.633,0-8.393,3.752-8.393,8.393c0,4.642,3.76,8.393,8.393,8.393h15.897 c4.642,0,8.393-3.752,8.393-8.393C188.728,440.208,184.976,436.456,180.335,436.456z"/> <path d="M132.647,436.456h-15.897c-4.633,0-8.393,3.752-8.393,8.393c0,4.642,3.76,8.393,8.393,8.393h15.897 c4.642,0,8.393-3.752,8.393-8.393C141.04,440.208,137.288,436.456,132.647,436.456z"/> <path d="M243.318,327.833c-4.264-1.813-9.199,0.143-11.029,4.39c-1.687,3.92-4.071,7.437-7.092,10.467 c-3.282,3.273-3.282,8.586,0,11.868c1.637,1.637,3.785,2.459,5.934,2.459c2.149,0,4.297-0.823,5.934-2.459 c4.532-4.532,8.116-9.812,10.643-15.696C249.538,334.607,247.574,329.671,243.318,327.833z"/> <path d="M275.712,436.456h-15.897c-4.633,0-8.393,3.752-8.393,8.393c0,4.642,3.76,8.393,8.393,8.393h15.897 c4.642,0,8.393-3.752,8.393-8.393C284.105,440.208,280.353,436.456,275.712,436.456z"/> <path d="M163.343,360.915c0-4.642-3.752-8.393-8.393-8.393h-15.897c-4.633,0-8.393,3.752-8.393,8.393s3.76,8.393,8.393,8.393 h15.897C159.591,369.309,163.343,365.557,163.343,360.915z"/> <path d="M228.024,436.456h-15.897c-4.633,0-8.393,3.752-8.393,8.393c0,4.642,3.76,8.393,8.393,8.393h15.897 c4.642,0,8.393-3.752,8.393-8.393C236.417,440.208,232.665,436.456,228.024,436.456z"/> <path d="M238.999,285.382c-3.097-3.466-8.41-3.743-11.852-0.671c-3.458,3.089-3.752,8.393-0.672,11.852 c2.854,3.198,5.036,6.832,6.497,10.836c1.251,3.399,4.457,5.506,7.89,5.506c0.957,0,1.931-0.159,2.879-0.504 c4.356-1.603,6.597-6.421,5.003-10.769C246.545,295.631,243.271,290.158,238.999,285.382z"/> <path d="M211.032,360.726c-0.101-4.574-3.836-8.217-8.393-8.217h-0.176l-15.721,0.008c-4.633,0-8.393,3.76-8.393,8.393 c0,4.642,3.76,8.393,8.393,8.393h14.689l1.385-0.008C207.44,369.195,211.124,365.368,211.032,360.726z"/> <path d="M100.712,268.587c-4.642,0-8.393,3.752-8.393,8.393c0,4.642,3.752,8.393,8.393,8.393h8.393 c4.642,0,8.393-3.752,8.393-8.393c0-4.642-3.752-8.393-8.393-8.393H100.712z"/> <path d="M95.409,233.063c1.57,1.301,3.475,1.947,5.38,1.947c2.14,0,4.281-0.814,5.917-2.443 c6.362-6.32,62.498-62.153,74.399-75.046c19.892-21.546,25.86-51.2,15.201-75.541c-8.67-19.8-27.111-31.627-49.32-31.627 c-21.068,0-36.696,11.541-46.298,24.811c-9.602-13.27-25.214-24.811-46.29-24.811c-22.31,0-40.792,12.162-49.429,32.516 c-10.374,24.433-4.163,54.49,15.427,74.786C31.535,169.189,91.254,229.596,95.409,233.063z"/> </g> </g> </g> </g>
<g id="SVGRepo_iconCarrier"> <g> <g> <g> <path d="M411.269,125.899c-57.797,0-92.328,50.671-92.328,99.664c0,30.51,7.798,47.322,20.707,75.172 c25.541,55.103,64.185,115.024,64.571,115.62c1.553,2.401,4.205,3.836,7.05,3.836s5.498-1.435,7.05-3.836 c0.386-0.596,39.029-60.517,64.571-115.62c12.909-27.849,20.707-44.661,20.707-75.172 C503.597,176.57,469.067,125.899,411.269,125.899z M411.269,268.587c-27.774,0-50.361-22.587-50.361-50.361 c0-27.774,22.587-50.361,50.361-50.361c27.774,0,50.361,22.587,50.361,50.361C461.63,246,439.043,268.587,411.269,268.587z"/> <path d="M411.269,184.653c-18.516,0-33.574,15.058-33.574,33.574s15.058,33.574,33.574,33.574s33.574-15.058,33.574-33.574 S429.785,184.653,411.269,184.653z"/> <path d="M411.269,436.456h-8.393c-4.642,0-8.393,3.752-8.393,8.393c0,4.642,3.752,8.393,8.393,8.393h8.393 c4.642,0,8.393-3.752,8.393-8.393C419.663,440.208,415.911,436.456,411.269,436.456z"/> <path d="M323.393,436.456h-15.897c-4.633,0-8.393,3.752-8.393,8.393c0,4.642,3.76,8.393,8.393,8.393h15.897 c4.642,0,8.393-3.752,8.393-8.393C331.786,440.208,328.034,436.456,323.393,436.456z"/> <path d="M371.081,436.456h-15.897c-4.633,0-8.393,3.752-8.393,8.393c0,4.642,3.76,8.393,8.393,8.393h15.897 c4.642,0,8.393-3.752,8.393-8.393C379.474,440.208,375.722,436.456,371.081,436.456z"/> <path d="M115.655,360.915c0-4.642-3.752-8.393-8.393-8.393H91.364c-4.633,0-8.393,3.752-8.393,8.393s3.76,8.393,8.393,8.393 h15.897C111.903,369.309,115.655,365.557,115.655,360.915z"/> <path d="M84.958,436.456H69.061c-4.633,0-8.393,3.752-8.393,8.393c0,4.642,3.76,8.393,8.393,8.393h15.897 c4.642,0,8.393-3.752,8.393-8.393C93.352,440.208,89.6,436.456,84.958,436.456z"/> <path d="M42.302,432.17c-3.718-2.09-6.967-4.826-9.652-8.15c-2.912-3.592-8.192-4.155-11.81-1.242 c-3.601,2.913-4.163,8.192-1.242,11.801c4.02,4.986,8.897,9.099,14.487,12.229c1.309,0.73,2.711,1.074,4.104,1.074 c2.929,0,5.783-1.544,7.328-4.289C47.783,439.556,46.339,434.444,42.302,432.17z"/> <path d="M67.556,360.923c0-4.633-4.163-8.393-8.796-8.402h-0.084c-6.06,0-11.986,1.074-17.626,3.19 c-4.348,1.628-6.539,6.471-4.91,10.811c1.267,3.366,4.465,5.439,7.856,5.439c0.99,0,1.989-0.168,2.955-0.529 c3.76-1.418,8.066-1.905,11.776-2.124h0.848C64.207,369.309,67.548,365.557,67.556,360.923z"/> <path d="M189.073,268.587c-4.642,0-8.393,3.752-8.393,8.393c0,4.642,3.752,8.393,8.393,8.393h12.414 c0.906,0,1.855,0.034,2.77,0.109c0.235,0.025,0.47,0.034,0.713,0.034c4.314,0,7.982-3.315,8.352-7.688 c0.394-4.616-3.038-8.687-7.655-9.065c-1.41-0.126-2.837-0.143-4.23-0.176H189.073z"/> <path d="M141.384,268.587c-4.642,0-8.393,3.752-8.393,8.393c0,4.642,3.752,8.393,8.393,8.393h15.906 c4.633,0,8.393-3.752,8.393-8.393c0-4.642-3.76-8.393-8.393-8.393H141.384z"/> <path d="M25.269,400.309c0.319-4.264,1.435-8.36,3.307-12.179c2.04-4.163,0.327-9.191-3.836-11.23 c-4.172-2.073-9.199-0.327-11.23,3.836c-2.82,5.75-4.499,11.91-4.977,18.315c-0.353,4.616,3.114,8.654,7.739,8.998 c0.21,0.017,0.428,0.025,0.638,0.025C21.257,408.073,24.942,404.715,25.269,400.309z"/> <path d="M180.335,436.456h-15.897c-4.633,0-8.393,3.752-8.393,8.393c0,4.642,3.76,8.393,8.393,8.393h15.897 c4.642,0,8.393-3.752,8.393-8.393C188.728,440.208,184.976,436.456,180.335,436.456z"/> <path d="M132.647,436.456h-15.897c-4.633,0-8.393,3.752-8.393,8.393c0,4.642,3.76,8.393,8.393,8.393h15.897 c4.642,0,8.393-3.752,8.393-8.393C141.04,440.208,137.288,436.456,132.647,436.456z"/> <path d="M243.318,327.833c-4.264-1.813-9.199,0.143-11.029,4.39c-1.687,3.92-4.071,7.437-7.092,10.467 c-3.282,3.273-3.282,8.586,0,11.868c1.637,1.637,3.785,2.459,5.934,2.459c2.149,0,4.297-0.823,5.934-2.459 c4.532-4.532,8.116-9.812,10.643-15.696C249.538,334.607,247.574,329.671,243.318,327.833z"/> <path d="M275.712,436.456h-15.897c-4.633,0-8.393,3.752-8.393,8.393c0,4.642,3.76,8.393,8.393,8.393h15.897 c4.642,0,8.393-3.752,8.393-8.393C284.105,440.208,280.353,436.456,275.712,436.456z"/> <path d="M163.343,360.915c0-4.642-3.752-8.393-8.393-8.393h-15.897c-4.633,0-8.393,3.752-8.393,8.393s3.76,8.393,8.393,8.393 h15.897C159.591,369.309,163.343,365.557,163.343,360.915z"/> <path d="M228.024,436.456h-15.897c-4.633,0-8.393,3.752-8.393,8.393c0,4.642,3.76,8.393,8.393,8.393h15.897 c4.642,0,8.393-3.752,8.393-8.393C236.417,440.208,232.665,436.456,228.024,436.456z"/> <path d="M238.999,285.382c-3.097-3.466-8.41-3.743-11.852-0.671c-3.458,3.089-3.752,8.393-0.672,11.852 c2.854,3.198,5.036,6.832,6.497,10.836c1.251,3.399,4.457,5.506,7.89,5.506c0.957,0,1.931-0.159,2.879-0.504 c4.356-1.603,6.597-6.421,5.003-10.769C246.545,295.631,243.271,290.158,238.999,285.382z"/> <path d="M211.032,360.726c-0.101-4.574-3.836-8.217-8.393-8.217h-0.176l-15.721,0.008c-4.633,0-8.393,3.76-8.393,8.393 c0,4.642,3.76,8.393,8.393,8.393h14.689l1.385-0.008C207.44,369.195,211.124,365.368,211.032,360.726z"/> <path d="M100.712,268.587c-4.642,0-8.393,3.752-8.393,8.393c0,4.642,3.752,8.393,8.393,8.393h8.393 c4.642,0,8.393-3.752,8.393-8.393c0-4.642-3.752-8.393-8.393-8.393H100.712z"/> <path d="M95.409,233.063c1.57,1.301,3.475,1.947,5.38,1.947c2.14,0,4.281-0.814,5.917-2.443 c6.362-6.32,62.498-62.153,74.399-75.046c19.892-21.546,25.86-51.2,15.201-75.541c-8.67-19.8-27.111-31.627-49.32-31.627 c-21.068,0-36.696,11.541-46.298,24.811c-9.602-13.27-25.214-24.811-46.29-24.811c-22.31,0-40.792,12.162-49.429,32.516 c-10.374,24.433-4.163,54.49,15.427,74.786C31.535,169.189,91.254,229.596,95.409,233.063z"/> </g> </g> </g> </g>
</svg>